<svg xmlns="http://www.w3.org/2000/svg" width="46" height="46" viewBox="0 0 46 46"><defs><style>.a{fill:#2373d0;}</style></defs><g transform="translate(0 0)"><path class="a" d="M41.957,0H4.043A4.048,4.048,0,0,0,0,4.043V6.1a14.755,14.755,0,0,0,3.222,9.185,15.012,15.012,0,0,0,6.921,4.764l1.428.476A13.425,13.425,0,0,0,18.957,26.3v2.1a1.349,1.349,0,0,1-1.348,1.348,4.048,4.048,0,0,0-4.043,4.043v1.348H12.219a1.348,1.348,0,0,0-1.348,1.348V43.3H9.523a1.348,1.348,0,0,0,0,2.7H36.477a1.348,1.348,0,1,0,0-2.7H35.129V36.477a1.348,1.348,0,0,0-1.348-1.348H32.434V33.781a4.048,4.048,0,0,0-4.043-4.043,1.349,1.349,0,0,1-1.348-1.348V26.3a13.424,13.424,0,0,0,7.379-5.765l1.506-.479.017-.006A14.7,14.7,0,0,0,46,6.1V4.043A4.048,4.048,0,0,0,41.957,0ZM5.327,13.6A12.051,12.051,0,0,1,2.7,6.1V4.043A1.349,1.349,0,0,1,4.043,2.7H8.317L9.689,15.039A13.275,13.275,0,0,0,10.1,17.15,12.182,12.182,0,0,1,5.327,13.6ZM13.566,43.3v-5.48H32.434V43.3ZM25.393,23.954a1.347,1.347,0,0,0-1.045,1.313v3.123a4.048,4.048,0,0,0,4.043,4.043,1.349,1.349,0,0,1,1.348,1.348v1.348H16.262V33.781a1.349,1.349,0,0,1,1.348-1.348,4.048,4.048,0,0,0,4.043-4.043V25.267a1.347,1.347,0,0,0-1.045-1.313,10.693,10.693,0,0,1-8.239-9.212L11.029,2.7H34.971L33.632,14.741a10.693,10.693,0,0,1-8.239,9.212ZM43.3,6.1a12.008,12.008,0,0,1-7.417,11.1,13.271,13.271,0,0,0,.424-2.153L37.683,2.7h4.274A1.349,1.349,0,0,1,43.3,4.043Zm0,0" transform="translate(0)"/><path class="a" d="M191.568,63.292l-2.6-.369-1.157-2.289a1.156,1.156,0,0,0-2.064,0l-1.157,2.289-2.6.369a1.156,1.156,0,0,0-.635,1.982l1.864,1.774-.439,2.5a1.156,1.156,0,0,0,1.667,1.229l2.33-1.2,2.33,1.2a1.156,1.156,0,0,0,1.667-1.229l-.439-2.5,1.863-1.774a1.156,1.156,0,0,0-.635-1.982ZM188.3,65.8a1.156,1.156,0,0,0-.342,1.038l.143.817-.789-.4a1.156,1.156,0,0,0-1.056,0l-.789.4.144-.817a1.157,1.157,0,0,0-.342-1.038l-.582-.554.831-.118a1.155,1.155,0,0,0,.869-.623l.4-.786.4.786a1.156,1.156,0,0,0,.87.623l.831.118Zm0,0" transform="translate(-163.78 -55.375)"/></g></svg>