<svg xmlns="http://www.w3.org/2000/svg" width="39.263" height="40.153" viewBox="0 0 39.263 40.153">
  <g id="calendar" transform="translate(-5.411)">
    <g id="Group_36498" data-name="Group 36498" transform="translate(5.411)">
      <path id="Path_72889" data-name="Path 72889" d="M122.038,259.152a.911.911,0,0,0-.911-.91h-3.18a.911.911,0,0,0-.911.91v3.18a.911.911,0,0,0,.911.911h3.18a.911.911,0,0,0,.911-.911v-3.18Z" transform="translate(-107.853 -237)" fill="#2373d0"/>
      <path id="Path_72890" data-name="Path 72890" d="M218.672,259.152a.911.911,0,0,0-.91-.91h-3.181a.911.911,0,0,0-.911.91v3.18a.911.911,0,0,0,.911.911h3.181a.911.911,0,0,0,.91-.911Z" transform="translate(-196.54 -237)" fill="#2373d0"/>
      <path id="Path_72891" data-name="Path 72891" d="M315.3,259.152a.911.911,0,0,0-.911-.91h-3.18a.911.911,0,0,0-.911.91v3.18a.911.911,0,0,0,.911.911h3.18a.911.911,0,0,0,.911-.911Z" transform="translate(-285.22 -237)" fill="#2373d0"/>
      <path id="Path_72892" data-name="Path 72892" d="M122.038,355.786a.911.911,0,0,0-.911-.911h-3.18a.911.911,0,0,0-.911.911v3.179a.911.911,0,0,0,.911.911h3.18a.911.911,0,0,0,.911-.911v-3.179Z" transform="translate(-107.853 -325.685)" fill="#2373d0"/>
      <path id="Path_72893" data-name="Path 72893" d="M218.672,355.786a.911.911,0,0,0-.91-.911h-3.181a.911.911,0,0,0-.911.911v3.179a.911.911,0,0,0,.911.911h3.181a.911.911,0,0,0,.91-.911Z" transform="translate(-196.54 -325.685)" fill="#2373d0"/>
      <path id="Path_72894" data-name="Path 72894" d="M315.3,355.786a.911.911,0,0,0-.911-.911h-3.181a.911.911,0,0,0-.911.911v3.179a.911.911,0,0,0,.911.911h3.181a.911.911,0,0,0,.911-.911v-3.179Z" transform="translate(-285.22 -325.685)" fill="#2373d0"/>
      <path id="Path_72895" data-name="Path 72895" d="M41.179,54.159v4.857A3.967,3.967,0,0,1,37.2,62.981H34.695a3.987,3.987,0,0,1-4-3.965V54.142H19.39v4.875a3.987,3.987,0,0,1-4,3.965H12.882a3.967,3.967,0,0,1-3.976-3.965V54.159a3.615,3.615,0,0,0-3.495,3.6V86.221a3.617,3.617,0,0,0,3.6,3.62H41.075a3.621,3.621,0,0,0,3.6-3.62V57.756A3.615,3.615,0,0,0,41.179,54.159ZM40.014,84.449A1.556,1.556,0,0,1,38.458,86h-26.9A1.556,1.556,0,0,1,10,84.449v-14.7a1.556,1.556,0,0,1,1.556-1.556h26.9a1.556,1.556,0,0,1,1.556,1.556v14.7Z" transform="translate(-5.411 -49.689)" fill="#2373d0"/>
      <path id="Path_72896" data-name="Path 72896" d="M80.914,10.689h2.481a1.363,1.363,0,0,0,1.364-1.363V1.363A1.363,1.363,0,0,0,83.395,0H80.914A1.363,1.363,0,0,0,79.55,1.363V9.326A1.363,1.363,0,0,0,80.914,10.689Z" transform="translate(-73.452)" fill="#2373d0"/>
      <path id="Path_72897" data-name="Path 72897" d="M345.822,10.689H348.3a1.363,1.363,0,0,0,1.363-1.363V1.363A1.363,1.363,0,0,0,348.3,0h-2.481a1.363,1.363,0,0,0-1.364,1.363V9.326A1.363,1.363,0,0,0,345.822,10.689Z" transform="translate(-316.57)" fill="#2373d0"/>
    </g>
  </g>
</svg>
