<svg xmlns="http://www.w3.org/2000/svg" width="49.533" height="45.516" viewBox="0 0 49.533 45.516">
  <g id="percentage" transform="translate(0.5 -4.373)">
    <g id="Group_36516" data-name="Group 36516" transform="translate(0 4.873)">
      <path id="Path_73072" data-name="Path 73072" d="M42.012,11.393a22.254,22.254,0,0,0-31.675.2,1.2,1.2,0,1,0,1.718,1.678,19.857,19.857,0,1,1-5.642,13.86v-.25L8.39,28.858a1.2,1.2,0,0,0,.849.35,1.22,1.22,0,0,0,.849-.35,1.2,1.2,0,0,0,0-1.7L6.074,23.136a1.2,1.2,0,0,0-1.7,0L.352,27.161a1.2,1.2,0,0,0,1.7,1.7l1.977-1.977v.25a22.256,22.256,0,0,0,38,15.737,22.263,22.263,0,0,0-.01-31.475Z" transform="translate(0 -4.873)" fill="#2373d0" stroke="#2373d0" stroke-width="1"/>
      <path id="Path_73073" data-name="Path 73073" d="M57.709,38.721,42.99,53.43a1.2,1.2,0,0,0,.849,2.047,1.22,1.22,0,0,0,.849-.349L59.406,40.409a1.2,1.2,0,1,0-1.7-1.688Z" transform="translate(-25.063 -24.562)" fill="#2373d0" stroke="#2373d0" stroke-width="1"/>
      <path id="Path_73074" data-name="Path 73074" d="M68.066,61.463A4.291,4.291,0,1,0,71.1,60.205,4.3,4.3,0,0,0,68.066,61.463Zm4.374,4.374a1.864,1.864,0,0,1-1.338.549,1.887,1.887,0,0,1-1.338-3.225,1.864,1.864,0,0,1,1.338-.549,1.887,1.887,0,0,1,1.338,3.225Z" transform="translate(-39.275 -37.398)" fill="#2373d0" stroke="#2373d0" stroke-width="1"/>
      <path id="Path_73075" data-name="Path 73075" d="M44.249,36.633a4.3,4.3,0,1,0,3.036,1.258A4.268,4.268,0,0,0,44.249,36.633Zm1.338,5.632a1.864,1.864,0,0,1-1.338.549,1.905,1.905,0,0,1-1.338-.549,1.864,1.864,0,0,1-.549-1.338,1.905,1.905,0,0,1,.549-1.338,1.864,1.864,0,0,1,1.338-.549,1.905,1.905,0,0,1,1.338.549,1.9,1.9,0,0,1,0,2.676Z" transform="translate(-23.486 -23.542)" fill="#2373d0" stroke="#2373d0" stroke-width="1"/>
    </g>
  </g>
</svg>
