<svg id="question" xmlns="http://www.w3.org/2000/svg" width="21" height="21" viewBox="0 0 21 21">
  <path id="Path_148007" data-name="Path 148007" d="M236.5,363.585a.917.917,0,1,1-.917-.917A.917.917,0,0,1,236.5,363.585Zm0,0" transform="translate(-225.085 -347.857)" fill="#d2d2d2"/>
  <path id="Path_148008" data-name="Path 148008" d="M10.5,21A10.5,10.5,0,1,1,21,10.5,10.512,10.512,0,0,1,10.5,21Zm0-19.687A9.188,9.188,0,1,0,19.688,10.5,9.2,9.2,0,0,0,10.5,1.313Zm0,0" fill="#d2d2d2"/>
  <path id="Path_148009" data-name="Path 148009" d="M169.228,95.186a.688.688,0,0,1-.687-.687v-.926a2.067,2.067,0,0,1,1.377-1.945,2.844,2.844,0,0,0,1.832-2.4,2.521,2.521,0,1,0-5.042,0,.688.688,0,0,1-1.375,0,3.9,3.9,0,1,1,7.792,0,4.218,4.218,0,0,1-2.749,3.7.688.688,0,0,0-.459.649V94.5A.688.688,0,0,1,169.228,95.186Zm0,0" transform="translate(-158.728 -81.967)" fill="#d2d2d2"/>
</svg>
