<svg id="score" xmlns="http://www.w3.org/2000/svg" width="44.968" height="44.968" viewBox="0 0 44.968 44.968">
  <g id="Group_36518" data-name="Group 36518" transform="translate(0 18.444)">
    <g id="Group_36517" data-name="Group 36517">
      <path id="Path_73076" data-name="Path 73076" d="M41.016,44.3H4.04A4.024,4.024,0,0,0,0,48.249v18.62a3.871,3.871,0,0,0,1.223,2.815A4.063,4.063,0,0,0,4.04,70.821H41.016a3.957,3.957,0,0,0,3.952-3.952V48.249A3.957,3.957,0,0,0,41.016,44.3Zm1.317,22.572a1.319,1.319,0,0,1-1.317,1.317H4.04a1.4,1.4,0,0,1-1.405-1.317V48.249A1.4,1.4,0,0,1,4.04,46.932H41.016a1.319,1.319,0,0,1,1.317,1.317Z" transform="translate(0 -44.297)" fill="#3c83d6"/>
    </g>
  </g>
  <g id="Group_36520" data-name="Group 36520" transform="translate(5.358 23.714)">
    <g id="Group_36519" data-name="Group 36519">
      <path id="Path_73077" data-name="Path 73077" d="M45.8,56.953H14.185a1.317,1.317,0,0,0-1.317,1.317V71.62a1.317,1.317,0,0,0,1.317,1.317H45.8A1.317,1.317,0,0,0,47.12,71.62V58.271A1.317,1.317,0,0,0,45.8,56.953ZM23.407,70.3H15.5V59.588h7.9Zm10.539,0h-7.9V59.588h7.9Zm10.539,0h-7.9V59.588h7.9Z" transform="translate(-12.867 -56.953)" fill="#3c83d6"/>
    </g>
  </g>
  <g id="Group_36522" data-name="Group 36522" transform="translate(0.302 3.842)">
    <g id="Group_36521" data-name="Group 36521">
      <path id="Path_73078" data-name="Path 73078" d="M13.407,13.78a1.317,1.317,0,0,0-.928-.869l-2.722-.693-1.5-2.375a1.318,1.318,0,0,0-2.227,0l-1.5,2.371-2.8.7a1.318,1.318,0,0,0-.679,2.14L2.9,17.19l-.253,2.769a1.317,1.317,0,0,0,1.788,1.348l2.7-1.046L9.752,21.3a1.317,1.317,0,0,0,1.8-1.309l-.182-2.8,1.795-2.161A1.317,1.317,0,0,0,13.407,13.78Zm-4.4,2.13a1.318,1.318,0,0,0-.3.927l.081,1.247-1.161-.462a1.318,1.318,0,0,0-.963,0l-1.2.466.111-1.212a1.317,1.317,0,0,0-.315-.981l-.814-.941,1.235-.306a1.317,1.317,0,0,0,.8-.575l.667-1.056.667,1.056a1.317,1.317,0,0,0,.789.573l1.211.308Z" transform="translate(-0.725 -9.229)" fill="#3c83d6"/>
    </g>
  </g>
  <g id="Group_36524" data-name="Group 36524" transform="translate(14.946)">
    <g id="Group_36523" data-name="Group 36523">
      <path id="Path_73079" data-name="Path 73079" d="M51,5.462a1.317,1.317,0,0,0-1.028-.891l-3.613-.625L44.643.7a1.317,1.317,0,0,0-2.33,0L40.6,3.946l-3.613.625a1.317,1.317,0,0,0-.72,2.216l2.556,2.629L38.3,13.046a1.318,1.318,0,0,0,1.885,1.37l3.29-1.618,3.29,1.618a1.318,1.318,0,0,0,1.885-1.37l-.522-3.629,2.556-2.629A1.318,1.318,0,0,0,51,5.462Zm-5.2,2.583a1.318,1.318,0,0,0-.359,1.106l.259,1.8-1.631-.8a1.318,1.318,0,0,0-1.163,0l-1.631.8.259-1.8a1.318,1.318,0,0,0-.359-1.106L39.9,6.741l1.791-.31a1.317,1.317,0,0,0,.941-.683l.848-1.608.848,1.608a1.317,1.317,0,0,0,.941.683l1.791.31Z" transform="translate(-35.895)" fill="#3c83d6"/>
    </g>
  </g>
  <g id="Group_36526" data-name="Group 36526" transform="translate(32.008 3.843)">
    <g id="Group_36525" data-name="Group 36525">
      <path id="Path_73080" data-name="Path 73080" d="M89.555,13.78a1.317,1.317,0,0,0-.928-.869l-2.739-.7L84.3,9.818a1.317,1.317,0,0,0-2.212.024l-1.5,2.375-2.722.693a1.317,1.317,0,0,0-.688,2.118l1.795,2.161-.182,2.8a1.317,1.317,0,0,0,1.8,1.309l2.617-1.042,2.7,1.046a1.317,1.317,0,0,0,1.79-1.314l-.182-2.8,1.795-2.161A1.318,1.318,0,0,0,89.555,13.78Zm-4.4,2.13a1.318,1.318,0,0,0-.3.927l.082,1.268-1.261-.488a1.317,1.317,0,0,0-.963,0l-1.161.462.081-1.247a1.317,1.317,0,0,0-.3-.927l-.8-.961,1.211-.308a1.318,1.318,0,0,0,.789-.573l.694-1.1.744,1.122a1.317,1.317,0,0,0,.773.549l1.211.308Z" transform="translate(-76.873 -9.229)" fill="#3c83d6"/>
    </g>
  </g>
  <g id="Group_36528" data-name="Group 36528" transform="translate(10.627 28.983)">
    <g id="Group_36527" data-name="Group 36527">
      <path id="Path_73081" data-name="Path 73081" d="M26.841,69.609a1.317,1.317,0,0,0-1.317,1.317v2.81a1.317,1.317,0,1,0,2.635,0v-2.81A1.317,1.317,0,0,0,26.841,69.609Z" transform="translate(-25.523 -69.609)" fill="#3c83d6"/>
    </g>
  </g>
  <g id="Group_36530" data-name="Group 36530" transform="translate(21.167 28.983)">
    <g id="Group_36529" data-name="Group 36529">
      <path id="Path_73082" data-name="Path 73082" d="M52.153,69.609a1.317,1.317,0,0,0-1.317,1.317v2.81a1.317,1.317,0,1,0,2.635,0v-2.81A1.317,1.317,0,0,0,52.153,69.609Z" transform="translate(-50.836 -69.609)" fill="#3c83d6"/>
    </g>
  </g>
  <g id="Group_36532" data-name="Group 36532" transform="translate(31.706 28.983)">
    <g id="Group_36531" data-name="Group 36531">
      <path id="Path_73083" data-name="Path 73083" d="M77.466,69.609a1.317,1.317,0,0,0-1.317,1.317v2.81a1.317,1.317,0,1,0,2.635,0v-2.81A1.317,1.317,0,0,0,77.466,69.609Z" transform="translate(-76.148 -69.609)" fill="#3c83d6"/>
    </g>
  </g>
</svg>
