<svg xmlns="http://www.w3.org/2000/svg" width="23.779" height="21.099" viewBox="0 0 23.779 21.099">
  <g id="speaker_on" transform="translate(0.25 -2.746)">
    <path id="Path_148002" data-name="Path 148002" d="M12.71,3.191a1.355,1.355,0,0,0-1.383.02.416.416,0,0,0-.058.042L5.206,8.381H.447A.447.447,0,0,0,0,8.829v8.5a.448.448,0,0,0,.447.447l4.748,0,6.06,5.566a.436.436,0,0,0,.072.054,1.355,1.355,0,0,0,1.383.02,1.4,1.4,0,0,0,.714-1.233V4.424A1.4,1.4,0,0,0,12.71,3.191Zm-.181,18.992a.513.513,0,0,1-.259.454.469.469,0,0,1-.447.012L5.817,17.132V15.093a.447.447,0,0,0-.895,0v1.788l-4.027,0V9.276H4.922v1.79a.447.447,0,1,0,.895,0V9.036l6-5.074a.468.468,0,0,1,.455.008.513.513,0,0,1,.259.454Z" fill="#d2d2d2" stroke="#d2d2d2" stroke-width="0.5"/>
    <path id="Path_148003" data-name="Path 148003" d="M38.066,7.037a.448.448,0,1,0-.288.848,7.822,7.822,0,0,1,.01,14.814.448.448,0,0,0,.145.871.441.441,0,0,0,.145-.024,8.718,8.718,0,0,0-.012-16.509Z" transform="translate(-20.706 -2.211)" fill="#d2d2d2" stroke="#d2d2d2" stroke-width="0.5"/>
    <path id="Path_148004" data-name="Path 148004" d="M36.933,18.33a6.067,6.067,0,0,0-4.362-5.8.448.448,0,0,0-.248.86,5.142,5.142,0,0,1,0,9.88.447.447,0,0,0,.124.877.455.455,0,0,0,.124-.017A6.067,6.067,0,0,0,36.933,18.33Z" transform="translate(-17.681 -5.25)" fill="#d2d2d2" stroke="#d2d2d2" stroke-width="0.5"/>
  </g>
</svg>
