<svg xmlns="http://www.w3.org/2000/svg" width="25.694" height="21.099" viewBox="0 0 25.694 21.099">
  <g id="speaker_off" transform="translate(0.25 -2.746)">
    <path id="Path_148002" data-name="Path 148002" d="M12.71,3.191a1.355,1.355,0,0,0-1.383.02.416.416,0,0,0-.058.042L5.206,8.381H.447A.447.447,0,0,0,0,8.829v8.5a.448.448,0,0,0,.447.447l4.748,0,6.06,5.566a.436.436,0,0,0,.072.054,1.355,1.355,0,0,0,1.383.02,1.4,1.4,0,0,0,.714-1.233V4.424A1.4,1.4,0,0,0,12.71,3.191Zm-.181,18.992a.513.513,0,0,1-.259.454.469.469,0,0,1-.447.012L5.817,17.132V15.093a.447.447,0,0,0-.895,0v1.788l-4.027,0V9.276H4.922v1.79a.447.447,0,1,0,.895,0V9.036l6-5.074a.468.468,0,0,1,.455.008.513.513,0,0,1,.259.454Z" fill="#d2d2d2" stroke="#d2d2d2" stroke-width="0.5"/>
    <g id="Group_51008" data-name="Group 51008" transform="translate(-2.662 1.202) rotate(-3)">
      <rect id="Rectangle_6168" data-name="Rectangle 6168" width="1.8" height="12" rx="0.9" transform="matrix(0.719, -0.695, 0.695, 0.719, 17.627, 9.552)" fill="#d2d2d2"/>
      <rect id="Rectangle_6169" data-name="Rectangle 6169" width="1.8" height="12" rx="0.9" transform="matrix(0.682, 0.731, -0.731, 0.682, 26.402, 8.301)" fill="#d2d2d2"/>
    </g>
  </g>
</svg>
